<?xml version="1.0" ?><!DOCTYPE svg  PUBLIC '-//W3C//DTD SVG 1.1//EN'  'http://www.w3.org/Graphics/SVG/1.1/DTD/svg11.dtd'>
<svg enable-background="new 0 0 130 130" height="130px" id="icon" version="1.1" viewBox="0 0 130 130" width="130px" xml:space="preserve" xmlns="http://www.w3.org/2000/svg" xmlns:xlink="http://www.w3.org/1999/xlink">
    <path d="M110.018,64.563c0,0.151,0.069,0.289,0.069,0.469  c0,9.969-8.747,18.065-19.565,18.065c-6.23,0-11.771-2.791-15.359-7.012c-0.865,1.596-7.688,4.221-11.178,3.451  C54.454,77.35,50.7,68.813,52.159,62.198c-7.577-1.526-13.146-6.793-13.146-15.249c0-9.35,4.166-20.873,21.655-22.412  c1.101-5.528,9.406-12.788,22.139-12.788c12.402,0,19.719,7.438,20.899,12.98l5.155,0.082c8.855,1.457,16.707,12.65,16.707,22.138  C125.568,56.176,118.641,64.138,110.018,64.563z" fill="none" stroke="#3262F9" stroke-miterlimit="10" stroke-width="2"/>
    <path d="M47.688,78.975  c-0.192-0.51-0.592-0.867-1.086-0.949l-5.006-0.756l-2.09-4.619c-0.261-0.469-0.715-0.799-1.265-0.799  c-0.522,0-1.004,0.33-1.238,0.799l-2.158,4.619l-4.949,0.756c-0.537,0.082-0.95,0.439-1.101,0.949  c-0.151,0.496-0.042,1.045,0.33,1.39l3.644,3.739l-0.853,5.197c-0.096,0.521,0.11,1.045,0.522,1.36  c0.262,0.151,0.551,0.233,0.825,0.233c0.262,0,0.468-0.056,0.632-0.192l4.346-2.364l4.316,2.364  c0.221,0.138,0.413,0.192,0.675,0.192c0.275,0,0.55-0.082,0.812-0.233c0.412-0.315,0.618-0.839,0.521-1.36l-0.797-5.197l3.602-3.739  C47.729,80.02,47.866,79.471,47.688,78.975z" fill="none" id="star_8_" stroke="#3262F9" stroke-miterlimit="10" stroke-width="2"/>
    <path d="M27.471,97.688  c-0.192-0.469-0.604-0.824-1.113-0.908l-4.95-0.771l-2.131-4.62c-0.248-0.453-0.701-0.783-1.251-0.783  c-0.551,0-1.031,0.33-1.238,0.783l-2.159,4.62l-4.978,0.771c-0.495,0.084-0.907,0.439-1.073,0.908  c-0.164,0.494-0.041,1.071,0.33,1.431l3.617,3.739l-0.825,5.17c-0.097,0.522,0.138,1.06,0.508,1.361  c0.262,0.192,0.55,0.262,0.825,0.262c0.248,0,0.454-0.068,0.66-0.166l4.332-2.42l4.331,2.42c0.164,0.098,0.412,0.166,0.659,0.166  c0.248,0,0.55-0.068,0.784-0.262c0.427-0.303,0.633-0.839,0.55-1.361l-0.824-5.17l3.644-3.739  C27.526,98.76,27.65,98.184,27.471,97.688z" fill="none" id="star_7_" stroke="#3262F9" stroke-miterlimit="10" stroke-width="2"/>
</svg>